<?xml version="1.0" standalone="no"?>
<!DOCTYPE svg PUBLIC "-//W3C//DTD SVG 20010904//EN"
 "http://www.w3.org/TR/2001/REC-SVG-20010904/DTD/svg10.dtd">
<svg version="1.0" xmlns="http://www.w3.org/2000/svg"
 width="322.000000pt" height="283.000000pt" viewBox="0 0 322.000000 283.000000"
 preserveAspectRatio="xMidYMid meet">
<metadata>
Created by potrace 1.13, written by Peter Selinger 2001-2015
</metadata>
<g transform="translate(0.000000,283.000000) scale(0.100000,-0.100000)"
fill="#000000" stroke="none">
<path d="M788 2800 c-342 -40 -633 -288 -729 -622 -29 -101 -36 -277 -16 -383
29 -153 99 -298 196 -406 l40 -44 183 180 c750 738 1037 1029 1026 1043 -23
28 -126 101 -189 135 -85 47 -210 85 -317 97 -96 11 -98 11 -194 0z"/>
<path d="M2230 2800 c-181 -22 -385 -114 -482 -217 l-28 -29 600 -599 c330
-330 606 -601 613 -603 15 -3 71 62 126 148 45 70 92 185 112 275 19 84 16
284 -4 368 -63 256 -242 472 -483 584 -131 60 -316 90 -454 73z"/>
<path d="M635 1244 c-74 -11 -191 -36 -197 -42 -4 -4 143 -158 326 -341 183
-183 336 -329 340 -323 3 5 17 52 31 103 34 125 44 284 22 359 -33 114 -109
191 -222 226 -49 15 -240 27 -300 18z"/>
<path d="M2324 1236 c-119 -27 -196 -83 -241 -174 -24 -48 -28 -72 -31 -160
-3 -57 1 -131 8 -165 15 -81 51 -207 59 -207 3 0 157 151 341 335 223 223 329
336 319 339 -99 37 -356 55 -455 32z"/>
<path d="M1468 485 c-79 -15 -188 -54 -223 -81 -19 -14 -17 -18 60 -91 44 -43
131 -127 193 -187 l112 -111 185 185 c102 102 185 188 185 192 0 14 -113 65
-180 82 -93 24 -239 29 -332 11z"/>
</g>
</svg>
